<mxfile host="65bd71144e">
    <diagram id="0ot9EVYDW14Fd2PMvMEs" name="Page-1">
        <mxGraphModel dx="619" dy="611" grid="1" gridSize="4" guides="1" tooltips="1" connect="1" arrows="1" fold="1" page="1" pageScale="1" pageWidth="850" pageHeight="1100" math="0" shadow="0">
            <root>
                <mxCell id="0"/>
                <mxCell id="1" parent="0"/>
                <mxCell id="7" value="profiling data" style="text;html=1;align=center;verticalAlign=middle;whiteSpace=wrap;rounded=0;sketch=1;fontFamily=Comic Sans MS;fontColor=#33FF33;" vertex="1" parent="1">
                    <mxGeometry x="228" y="96" width="100" height="30" as="geometry"/>
                </mxCell>
                <mxCell id="2" value="" style="rounded=0;whiteSpace=wrap;html=1;sketch=1;fontFamily=Comic Sans MS;" vertex="1" parent="1">
                    <mxGeometry x="64" y="64" width="112" height="96" as="geometry"/>
                </mxCell>
                <mxCell id="3" value="Expert&amp;nbsp;&lt;br&gt;Programmer" style="rounded=0;whiteSpace=wrap;html=1;sketch=1;fontFamily=Comic Sans MS;fillColor=default;" vertex="1" parent="1">
                    <mxGeometry x="384" y="63" width="112" height="96" as="geometry"/>
                </mxCell>
                <mxCell id="4" value="" style="endArrow=classic;html=1;fontFamily=Comic Sans MS;exitX=1;exitY=0.5;exitDx=0;exitDy=0;sketch=1;startArrow=none;strokeColor=#33FF33;" edge="1" parent="1" source="7" target="3">
                    <mxGeometry width="50" height="50" relative="1" as="geometry">
                        <mxPoint x="372" y="338" as="sourcePoint"/>
                        <mxPoint x="422" y="288" as="targetPoint"/>
                    </mxGeometry>
                </mxCell>
                <mxCell id="5" value="profiling&lt;br&gt;agent" style="rounded=0;whiteSpace=wrap;html=1;sketch=1;fontFamily=Comic Sans MS;fontColor=#33FF33;" vertex="1" parent="1">
                    <mxGeometry x="104" y="108" width="64" height="48" as="geometry"/>
                </mxCell>
                <mxCell id="6" value="Cloud App" style="text;html=1;strokeColor=none;fillColor=none;align=center;verticalAlign=middle;whiteSpace=wrap;rounded=0;sketch=1;fontFamily=Comic Sans MS;" vertex="1" parent="1">
                    <mxGeometry x="66" y="63" width="60" height="30" as="geometry"/>
                </mxCell>
                <mxCell id="9" value="" style="endArrow=none;html=1;fontFamily=Comic Sans MS;exitX=1;exitY=0.5;exitDx=0;exitDy=0;sketch=1;strokeColor=#33FF33;" edge="1" parent="1" source="2" target="7">
                    <mxGeometry width="50" height="50" relative="1" as="geometry">
                        <mxPoint x="176" y="112" as="sourcePoint"/>
                        <mxPoint x="336" y="112" as="targetPoint"/>
                    </mxGeometry>
                </mxCell>
            </root>
        </mxGraphModel>
    </diagram>
</mxfile>